<svg xmlns="http://www.w3.org/2000/svg" width="144.282" height="97.412" viewBox="0 0 144.282 97.412">
    <defs>
        <style>
            .cls-1{fill:#4285f4}.cls-2{fill:#ea4335}.cls-6{fill:none}.cls-8{fill:#fab62c}
        </style>
    </defs>
    <g id="Group_5021" data-name="Group 5021" transform="translate(-677.219 -6087)">
        <path id="Shape" class="cls-1" d="M51 25.5v4h9.6a8.933 8.933 0 0 1-2.2 5.1 9.928 9.928 0 0 1-7.5 3A10.75 10.75 0 1 1 58.3 19l2.8-2.8A13.7 13.7 0 0 0 51 12a15.069 15.069 0 0 0-15 14.8 15 15 0 0 0 15 14.8 13.477 13.477 0 0 0 10.3-4.1 13.269 13.269 0 0 0 3.5-9.5 18.1 18.1 0 0 0-.2-2.5z" transform="translate(664.219 6075)"/>
        <path id="Shape_1_" class="cls-2" d="M76.8 22.2a9.6 9.6 0 0 0 0 19.2 9.416 9.416 0 0 0 9.6-9.6 9.416 9.416 0 0 0-9.6-9.6zm0 15.3a5.54 5.54 0 0 1-5.4-5.8 5.414 5.414 0 1 1 10.8 0 5.479 5.479 0 0 1-5.4 5.8z" transform="translate(664.219 6075)"/>
        <path id="Shape_2_" class="cls-1" d="M123.7 24.3h-.1a6.509 6.509 0 0 0-5-2.1c-4.8 0-8.9 4.2-8.9 9.6s4.2 9.6 8.9 9.6a6.231 6.231 0 0 0 5-2.2h.1v1.3c0 3.7-2 5.6-5.1 5.6a5.116 5.116 0 0 1-4.8-3.4l-3.6 1.5a9.15 9.15 0 0 0 8.5 5.6c4.9 0 9.1-2.9 9.1-10V22.7h-4v1.6zm-4.8 13.2c-2.9 0-5.1-2.5-5.1-5.8 0-3.4 2.2-5.8 5.1-5.8s5.1 2.5 5.1 5.8c0 3.4-2.2 5.8-5.1 5.8z" transform="translate(664.219 6075)"/>
        <path id="Shape_3_" d="M98.2 22.2a9.6 9.6 0 0 0 0 19.2 9.416 9.416 0 0 0 9.6-9.6 9.537 9.537 0 0 0-9.6-9.6zm0 15.3a5.54 5.54 0 0 1-5.4-5.8 5.414 5.414 0 1 1 10.8 0 5.479 5.479 0 0 1-5.4 5.8z" transform="translate(664.219 6075)" style="fill:#fbbc05"/>
        <path id="Shape_4_" d="M131 12.4h4.1v28.9H131z" transform="translate(664.219 6075)" style="fill:#34a853"/>
        <path id="Shape_5_" class="cls-2" d="M147.8 37.5a4.9 4.9 0 0 1-4.6-2.9l12.8-5.3-.4-1.1c-.8-2.1-3.2-6.1-8.2-6.1-4.9 0-9 3.9-9 9.6a9.511 9.511 0 0 0 17.4 5.4l-3.2-2.2a5.627 5.627 0 0 1-4.8 2.6zm-.3-11.7a3.818 3.818 0 0 1 3.6 2.1l-8.6 3.6c0-4.1 2.9-5.7 5-5.7z" transform="translate(664.219 6075)"/>
        <path id="Reviews" d="M45.5 51.6v4.1H48a2.271 2.271 0 0 0 1.6-.6 2.127 2.127 0 0 0 .7-1.5 1.974 1.974 0 0 0-.6-1.4 2.035 2.035 0 0 0-1.5-.6zm0 10.1H44V50.1h4.1a3.942 3.942 0 0 1 2.7 1 3.408 3.408 0 0 1 1.1 2.5 3.227 3.227 0 0 1-.8 2.1 3.668 3.668 0 0 1-2.1 1.2l3.4 4.7v.1h-1.8L47.3 57h-1.7v4.7zM57 62a4.1 4.1 0 0 1-4.2-4.2 4.426 4.426 0 0 1 1.1-3 3.847 3.847 0 0 1 2.9-1.2 4 4 0 0 1 2.9 1.1 4.591 4.591 0 0 1 1.1 3.2v.2h-6.5a2.56 2.56 0 0 0 .8 1.9 2.489 2.489 0 0 0 1.9.7 2.542 2.542 0 0 0 2.3-1.4l1.4.6a4.629 4.629 0 0 1-1.5 1.6 5.091 5.091 0 0 1-2.2.5zm-2.5-5.2h4.7a1.91 1.91 0 0 0-.7-1.4 2.311 2.311 0 0 0-1.7-.5 2.456 2.456 0 0 0-1.5.5 3.224 3.224 0 0 0-.8 1.4zm11.6 4.9h-1.5l-3.3-7.9H63l2.4 6.2 2.5-6.2h1.6zm6.4-10.6a.908.908 0 0 1-.3.7 1.217 1.217 0 0 1-1.6 0 .967.967 0 0 1 0-1.4 1.217 1.217 0 0 1 1.6 0 .908.908 0 0 1 .3.7zm-.3 2.7v7.9h-1.5v-7.9zm5.6 8.2a4.1 4.1 0 0 1-4.2-4.2 4.426 4.426 0 0 1 1.1-3 3.847 3.847 0 0 1 2.9-1.2 4 4 0 0 1 2.9 1.1 4.591 4.591 0 0 1 1.1 3.2v.2h-6.5a2.56 2.56 0 0 0 .8 1.9 2.489 2.489 0 0 0 1.9.7 2.542 2.542 0 0 0 2.3-1.4l1.4.6a4.629 4.629 0 0 1-1.5 1.6 4.767 4.767 0 0 1-2.2.5zm-2.4-5.2h4.7a1.91 1.91 0 0 0-.7-1.4 2.311 2.311 0 0 0-1.7-.5 2.237 2.237 0 0 0-2.3 1.9zm19.3-3L92 61.7h-1.6l-2.1-6.1-2 6.1h-1.6L82 53.8h1.6l1.8 6 2-6H89l2 6 1.8-6zm7.3 5.7a2.271 2.271 0 0 1-.9 1.8 3.793 3.793 0 0 1-2.4.7 4.032 4.032 0 0 1-2.2-.6 3.323 3.323 0 0 1-1.3-1.6l1.4-.6a2.445 2.445 0 0 0 .9 1.1 2.01 2.01 0 0 0 1.3.4 2.133 2.133 0 0 0 1.2-.3c.3-.2.5-.4.5-.7 0-.5-.4-.9-1.2-1.1l-1.4-.3c-1.6-.4-2.4-1.1-2.4-2.2a1.965 1.965 0 0 1 .9-1.7 4.176 4.176 0 0 1 2.3-.7 4.552 4.552 0 0 1 2 .5 2.5 2.5 0 0 1 1.2 1.3l-1.4.6a2.047 2.047 0 0 0-.8-.8 2.375 2.375 0 0 0-1.2-.3 2.016 2.016 0 0 0-1.1.3c-.3.2-.5.4-.5.7 0 .5.4.8 1.3 1l1.2.3c1.8.2 2.6 1 2.6 2.2z" transform="translate(718.219 6085)" style="fill:#fff"/>
        <path id="Shape_15_" class="cls-6" d="M160.8 74h19.9v19.4h-19.9z" transform="translate(640.801 6085)"/>
        <path id="Shape_17_" class="cls-6" d="M160.8 74h19.9v19.4h-19.9z" transform="translate(640.801 6085)"/>
        <text id="_4.5" data-name="4.5" transform="translate(677.219 6178.412)" style="font-size:26.113px;font-family:ArialMT,Arial;fill:#fab62c"><tspan x="0" y="0">4.5</tspan></text>
        <path id="Shape_6_" class="cls-6" d="M81.4 74h19.9v19.4H81.4z" transform="translate(680.427 6085)"/>
        <path id="Shape_7_" class="cls-8" d="m91.3 88 5.1 3-1.3-5.7 4.5-3.8-5.9-.5-2.4-5.4L89 81l-5.9.5 4.5 3.8-1.4 5.7z" transform="translate(680.427 6085)"/>
        <path id="Shape_8_" class="cls-6" d="M81.4 74h19.9v19.4H81.4z" transform="translate(680.427 6085)"/>
        <path id="Shape_9_" class="cls-6" d="M81.4 74h19.9v19.4H81.4z" transform="translate(660.572 6085)"/>
        <path id="Shape_10_" class="cls-8" d="m91.3 88 5.1 3-1.3-5.7 4.5-3.8-5.9-.5-2.4-5.4L89 81l-5.9.5 4.5 3.8-1.4 5.7z" transform="translate(660.572 6085)"/>
        <path id="Shape_11_" class="cls-6" d="M81.4 74h19.9v19.4H81.4z" transform="translate(660.572 6085)"/>
        <path id="Shape_12_" class="cls-6" d="M81.4 74h19.9v19.4H81.4z" transform="translate(640.719 6085)"/>
        <path id="Shape_13_" class="cls-8" d="m91.3 88 5.1 3-1.3-5.7 4.5-3.8-5.9-.5-2.4-5.4L89 81l-5.9.5 4.5 3.8-1.4 5.7z" transform="translate(640.719 6085)"/>
        <path id="Shape_14_" class="cls-6" d="M81.4 74h19.9v19.4H81.4z" transform="translate(640.719 6085)"/>
        <path id="Shape_21_" d="m170.7 88 5.2 3-1.4-5.7 4.5-3.8-5.9-.5-2.4-5.4-2.3 5.4-5.9.5 4.5 3.8-1.4 5.7z" transform="translate(640.719 6085)" style="stroke:#fab62c;stroke-miterlimit:10;fill:none"/>
        <path id="Shape_18_" class="cls-6" d="M81.4 74h19.9v19.4H81.4z" transform="translate(700.28 6085)"/>
        <path id="Shape_19_" class="cls-8" d="m91.3 88 5.1 3-1.3-5.7 4.5-3.8-5.9-.5-2.4-5.4L89 81l-5.9.5 4.5 3.8-1.4 5.7z" transform="translate(700.28 6085)"/>
        <path id="Shape_20_" class="cls-6" d="M81.4 74h19.9v19.4H81.4z" transform="translate(700.28 6085)"/>
        <path id="Path_7351" data-name="Path 7351" class="cls-8" d="M170.7 88.1V75.7l-2.3 5.4-5.9.5 4.5 3.8-1.4 5.7z" transform="translate(640.719 6085)"/>
    </g>
</svg>
